<svg width="34" height="34" viewBox="0 0 34 34" fill="none" xmlns="http://www.w3.org/2000/svg">
<path fill-rule="evenodd" clip-rule="evenodd" d="M33.9711 15.9999H18V0.0288086C26.5925 0.527233 33.4727 7.40739 33.9711 15.9999Z" fill="#F0646F"/>
<path fill-rule="evenodd" clip-rule="evenodd" d="M33.9711 15.9999H18V0.0288086C26.5925 0.527233 33.4727 7.40739 33.9711 15.9999Z" fill="url(#paint0_linear)"/>
<path fill-rule="evenodd" clip-rule="evenodd" d="M15.9712 7L15.9712 15.9712L7 15.9712C7.27997 11.1447 11.1447 7.27997 15.9712 7Z" fill="#F0646F"/>
<path fill-rule="evenodd" clip-rule="evenodd" d="M15.9712 7L15.9712 15.9712L7 15.9712C7.27997 11.1447 11.1447 7.27997 15.9712 7Z" fill="url(#paint1_linear)"/>
<path fill-rule="evenodd" clip-rule="evenodd" d="M15.971 23L15.971 18L10.9712 18C11.1272 20.6899 13.2811 22.8438 15.971 23Z" fill="#F0646F"/>
<path fill-rule="evenodd" clip-rule="evenodd" d="M15.971 23L15.971 18L10.9712 18C11.1272 20.6899 13.2811 22.8438 15.971 23Z" fill="url(#paint2_linear)"/>
<path fill-rule="evenodd" clip-rule="evenodd" d="M7.55531 2.86513C10.0731 1.18282 12.9892 0.206929 16 0.029541V5.04325C13.9795 5.21222 12.0288 5.89115 10.3339 7.02364C8.36078 8.34206 6.82289 10.216 5.91475 12.4084C5.0066 14.6009 4.76899 17.0134 5.23196 19.3409C5.69493 21.6684 6.83768 23.8064 8.51572 25.4844C10.1938 27.1624 12.3317 28.3052 14.6592 28.7682C16.9867 29.2311 19.3992 28.9935 21.5917 28.0854C23.7841 27.1772 25.6581 25.6393 26.9765 23.6662C27.1221 23.4482 27.2603 23.226 27.3908 23H18V18H32V18.0001H33.9706C33.7932 21.011 32.8173 23.9271 31.135 26.4448C29.267 29.2404 26.612 31.4194 23.5056 32.7061C20.3993 33.9928 16.9811 34.3294 13.6835 33.6735C10.3858 33.0175 7.35669 31.3984 4.97919 29.0209C2.6017 26.6434 0.982607 23.6143 0.326658 20.3166C-0.329291 17.019 0.00736585 13.6008 1.29406 10.4945C2.58075 7.38815 4.75968 4.73311 7.55531 2.86513Z" fill="#5BABE0"/>
<path fill-rule="evenodd" clip-rule="evenodd" d="M7.55531 2.86513C10.0731 1.18282 12.9892 0.206929 16 0.029541V5.04325C13.9795 5.21222 12.0288 5.89115 10.3339 7.02364C8.36078 8.34206 6.82289 10.216 5.91475 12.4084C5.0066 14.6009 4.76899 17.0134 5.23196 19.3409C5.69493 21.6684 6.83768 23.8064 8.51572 25.4844C10.1938 27.1624 12.3317 28.3052 14.6592 28.7682C16.9867 29.2311 19.3992 28.9935 21.5917 28.0854C23.7841 27.1772 25.6581 25.6393 26.9765 23.6662C27.1221 23.4482 27.2603 23.226 27.3908 23H18V18H32V18.0001H33.9706C33.7932 21.011 32.8173 23.9271 31.135 26.4448C29.267 29.2404 26.612 31.4194 23.5056 32.7061C20.3993 33.9928 16.9811 34.3294 13.6835 33.6735C10.3858 33.0175 7.35669 31.3984 4.97919 29.0209C2.6017 26.6434 0.982607 23.6143 0.326658 20.3166C-0.329291 17.019 0.00736585 13.6008 1.29406 10.4945C2.58075 7.38815 4.75968 4.73311 7.55531 2.86513Z" fill="url(#paint3_linear)"/>
<defs>
<linearGradient id="paint0_linear" x1="29.5" y1="5.5" x2="18" y2="17" gradientUnits="userSpaceOnUse">
<stop offset="0.0322" stop-color="#F0776F"/>
<stop offset="0.5032" stop-color="#F0656F"/>
<stop offset="1" stop-color="#F0606F"/>
</linearGradient>
<linearGradient id="paint1_linear" x1="16" y1="17" x2="7.00014" y2="7.00032" gradientUnits="userSpaceOnUse">
<stop stop-color="#F0C860"/>
<stop offset="1" stop-color="#E4F060"/>
</linearGradient>
<linearGradient id="paint2_linear" x1="15.9871" y1="17.4266" x2="10.9711" y2="22.9997" gradientUnits="userSpaceOnUse">
<stop stop-color="#60F0D6"/>
<stop offset="1" stop-color="#B1F060"/>
</linearGradient>
<linearGradient id="paint3_linear" x1="41.4002" y1="-5.06709" x2="-2.76367" y2="-5.06709" gradientUnits="userSpaceOnUse">
<stop stop-color="#47B4E0"/>
<stop offset="0.1718" stop-color="#1588E0"/>
<stop offset="1" stop-color="#6EB4E0"/>
</linearGradient>
</defs>
</svg>
